<?xml version="1.0" encoding="UTF-8"?>
<svg clip-rule="evenodd" fill-rule="evenodd" stroke-linejoin="round" stroke-miterlimit="1.4142" version="1.1" viewBox="0 0 1189 489" xmlns="http://www.w3.org/2000/svg">
 <g transform="matrix(.48 0 0 .48 -14.4 -101.3)">
  <g transform="translate(0 181.04)">
   <g transform="matrix(.47195 0 0 .47195 -266.98 -69.791)">
    <path d="m629.27 911.11v-624.02c0-41.778 33.867-75.646 75.645-75.646h416.3l311.9 311.9v451.04h-803.84v-63.27z" fill="#fa8d00"/>
    <g transform="matrix(1 0 0 .87323 -2.0464e-12 160.45)">
     <path d="m1433.1 932.09v241.64c0 38.83-33.86 70.3-75.64 70.3h-652.56c-41.778 0-75.645-31.47-75.645-70.3v-241.64h803.84z" fill="#ff7000"/>
    </g>
    <g transform="translate(-799.57 117.45)">
     <path d="m2011.2 779.52c-120.29 0.37-240.57 0-360.86 0-0.85-3e-3 -1.7-0.014-2.56-0.04-1.88-0.059-3.76-0.181-5.63-0.367-5.92-0.587-11.77-1.811-17.42-3.644-7.41-2.401-14.47-5.845-20.92-10.204-6.39-4.312-12.16-9.514-17.12-15.411-2.95-3.517-5.61-7.279-7.95-11.235-2.75-4.66-5.04-9.589-6.83-14.694-2.08-5.924-3.49-12.084-4.19-18.324-0.21-1.87-0.35-3.748-0.43-5.628-0.05-1.031-0.07-2.062-0.08-3.093-0.17-56.608 0-113.22 0-169.82 0-1.023 0.02-2.047 0.06-3.069 0.07-1.882 0.2-3.762 0.4-5.635 0.58-5.573 1.74-11.085 3.43-16.426 1.49-4.674 3.38-9.215 5.67-13.554 2.76-5.264 6.1-10.229 9.92-14.782 4.52-5.376 9.72-10.176 15.44-14.249 6.34-4.517 13.32-8.135 20.67-10.717 5.77-2.025 11.75-3.411 17.82-4.127 2.04-0.241 4.08-0.406 6.14-0.495 1.03-0.044 2.06-0.067 3.09-0.076 120.62-0.374 241.25-0.374 361.87 0 0.86 8e-3 1.72 0.024 2.58 0.056 1.88 0.07 3.76 0.203 5.64 0.401 5.91 0.624 11.75 1.883 17.39 3.749 7.23 2.393 14.13 5.783 20.44 10.047 5.81 3.929 11.12 8.596 15.77 13.856 3.15 3.574 6 7.419 8.5 11.48 3.1 5.042 5.66 10.418 7.62 16.003 2.03 5.764 3.42 11.751 4.13 17.818 0.24 2.037 0.41 4.083 0.5 6.133 0.04 1.031 0.06 2.063 0.07 3.095 0.17 56.608 0 113.22 0 169.82 0 1.022-0.01 2.045-0.05 3.067-0.07 1.883-0.21 3.765-0.4 5.639-0.61 5.74-1.82 11.415-3.6 16.906-2.4 7.407-5.84 14.47-10.2 20.921-3.83 5.672-8.37 10.865-13.47 15.428-4.31 3.859-9.03 7.264-14.05 10.145-4.4 2.524-9.03 4.644-13.82 6.326-5.31 1.866-10.82 3.19-16.39 3.946-1.52 0.476-2.73 0.477-5.05 0.754h-6.13zm14.05-35.172c0.56-0.163 1.11-0.336 1.66-0.518 4.74-1.567 9.24-3.847 13.3-6.74 3.86-2.747 7.32-6.044 10.25-9.762 3.47-4.4 6.19-9.385 8.02-14.685 1.23-3.57 2.05-7.279 2.45-11.034 0.17-1.64 0.26-3.286 0.27-4.935 0.17-56.635 0.17-113.27 0-169.9-0.01-1.649-0.1-3.296-0.27-4.935-0.4-3.755-1.22-7.465-2.45-11.034-1.83-5.3-4.55-10.285-8.02-14.686-2.93-3.717-6.39-7.015-10.25-9.761-4.06-2.893-8.56-5.173-13.3-6.74-3.39-1.122-6.9-1.879-10.45-2.254-1.64-0.173-3.29-0.26-4.94-0.275-120.38-0.373-240.75-1e-3 -361.13-1e-3 -0.63 2e-3 -1.26 0.011-1.89 0.034-1.13 0.043-2.26 0.123-3.38 0.242-3.76 0.396-7.47 1.219-11.04 2.449-5.78 1.993-11.19 5.054-15.88 8.991-3.38 2.847-6.39 6.145-8.92 9.782-2.72 3.93-4.88 8.252-6.38 12.793-1.12 3.393-1.88 6.904-2.26 10.457-0.17 1.641-0.26 3.288-0.27 4.938-0.17 56.635-0.17 113.27 0 169.9 0 0.62 0.02 1.24 0.04 1.86 0.06 1.233 0.16 2.465 0.3 3.691 0.43 3.645 1.26 7.243 2.48 10.707 1.83 5.192 4.51 10.076 7.92 14.396 2.93 3.718 6.4 7.015 10.25 9.762 4.07 2.894 8.56 5.173 13.3 6.74 3.29 1.089 6.7 1.835 10.15 2.221 1.74 0.194 3.49 0.292 5.24 0.308 4 0.012 8 0.024 11.99 0.036l89.43-120.1c0.23-0.287 0.45-0.582 0.69-0.862 0.48-0.559 0.99-1.086 1.54-1.577 2.19-1.966 4.9-3.327 7.79-3.91 0.72-0.146 1.45-0.244 2.18-0.292 0.37-0.025 0.74-0.025 1.1-0.037 0.37 0.012 0.74 0.024 1.1 0.037 0.37 0.036 0.74 0.061 1.1 0.109 0.73 0.098 1.45 0.244 2.16 0.437 2.48 0.676 4.8 1.937 6.72 3.656 0.54 0.491 1.06 1.018 1.53 1.577 0.24 0.28 0.46 0.575 0.69 0.862l28.62 38.432 70.31-112.33c0.77-0.97 1.43-2.033 2.31-2.911 0.87-0.878 1.86-1.662 2.9-2.322 2.12-1.33 4.5-2.166 6.98-2.445 1.23-0.14 2.48 0 3.72 0 1.21 0.276 2.42 0.552 3.63 0.829 1.11 0.538 2.3 0.955 3.34 1.616 2.83 1.78 3.18 2.668 5.22 5.233l120.15 191.95zm-321.84 2.012h122.72l-61.36-82.406c-20.45 27.469-40.9 54.937-61.36 82.406zm124.53-53.094l39.54 53.094h119.91l-96.34-153.92-63.11 100.82zm-136.26-186.22c24.13 0 43.72 19.589 43.72 43.718 0 24.128-19.59 43.717-43.72 43.717s-43.72-19.589-43.72-43.717c0-24.129 19.59-43.718 43.72-43.718zm0 16.895c14.81 0 26.83 12.019 26.83 26.823s-12.02 26.823-26.83 26.823c-14.8 0-26.82-12.019-26.82-26.823s12.02-26.823 26.82-26.823z" fill="#fff"/>
    </g>
    <g transform="translate(3.2597 -1.5916e-12)">
     <path d="m1117.8 211.44h0.14l311.94 311.94v260.83c-2.19 1.131-4.06 1.055-5.56-0.442-14.77-14.769-292.47-273.35-292.47-294.24 0-91.863-13.88-275.89-14.05-278.09z" fill="url(#a)"/>
    </g>
    <g transform="translate(3.2597 -1.5348e-12)">
     <path d="m1117.8 211.44h0.14l311.94 311.94h-233.33c-20.88 0-40.91-8.297-55.68-23.066s-23.07-34.8-23.07-55.686v-233.19z" fill="#ff7000"/>
    </g>
    <g transform="translate(0 44.289)" fill="#fff" fill-rule="nonzero">
     <path d="m866.31 983.48h42.106v100.51c0 10.93-0.706 19.32-2.116 25.18-1.411 5.85-3.738 11.03-6.983 15.55-4.302 5.85-9.592 10.28-15.869 13.28-6.277 2.99-13.33 4.49-21.159 4.49-9.733 0-18.408-2.08-26.025-6.24s-14.141-10.33-19.572-18.51l25.814-23.38c0.635 4.58 2.116 8.11 4.443 10.57 2.328 2.47 5.255 3.71 8.781 3.71 4.02 0 6.789-2.23 8.305-6.67s2.275-15.55 2.275-33.32v-85.168z"/>
     <path d="m979.19 1138.4h-39.567v-154.89h44.116c17.279 0 29.409 0.847 36.389 2.539 6.99 1.693 12.91 4.585 17.78 8.675 5.71 4.726 10.07 10.634 13.06 17.724 3 7.08 4.5 14.97 4.5 23.64 0 9.24-1.48 17.37-4.44 24.39-2.97 7.01-7.34 12.78-13.12 17.3-4.37 3.38-9.52 5.81-15.45 7.3-5.92 1.48-15.41 2.22-28.457 2.22h-14.811v51.1zm0-85.17h8.04c10.157 0 17.248-1.39 21.268-4.18 4.02-2.78 6.03-7.53 6.03-14.23 0-6.49-1.98-11.11-5.93-13.86s-10.929-4.12-20.944-4.12h-8.464v36.39z"/>
     <path d="m1150.6 1081.3v-32.48h82.94c0.07 1.06 0.12 2.23 0.16 3.49 0.03 1.27 0.05 3.14 0.05 5.61 0 26.66-7.03 47.34-21.1 62.05-14.07 14.7-33.87 22.06-59.41 22.06-12.55 0-23.71-1.89-33.48-5.66-9.77-3.78-18.5-9.54-26.18-17.3-7.34-7.41-13.03-16.17-17.09-26.29s-6.08-20.72-6.08-31.79c0-11.57 1.97-22.2 5.92-31.9 3.95-9.69 9.84-18.42 17.67-26.18 7.76-7.548 16.66-13.261 26.71-17.14s20.9-5.819 32.53-5.819c15.17 0 28.59 2.998 40.26 8.993s21.49 14.916 29.46 26.766l-36.6 17.56c-4.38-5.99-9.29-10.45-14.76-13.38s-11.59-4.39-18.36-4.39c-12.62 0-22.57 4.21-29.83 12.64s-10.9 19.94-10.9 34.54c0 14.74 3.64 26.35 10.9 34.81s17.21 12.69 29.83 12.69c10.72 0 19.66-2.62 26.82-7.88 7.16-5.25 11.34-12.25 12.54-21h-42z"/>
    </g>
   </g>
   <g transform="matrix(.47195 0 0 .47195 -266.98 458.84)">
    <path d="m629.27 911.11v-624.02c0-41.778 33.867-75.646 75.645-75.646h416.3l311.9 311.9v451.04h-803.84v-63.27z" fill="#af00fa"/>
    <g transform="matrix(1 0 0 .87323 -2.0464e-12 160.45)">
     <path d="m1433.1 932.09v241.64c0 38.83-33.86 70.3-75.64 70.3h-652.56c-41.778 0-75.645-31.47-75.645-70.3v-241.64h803.84z" fill="#9700ff"/>
    </g>
    <g transform="translate(3.2597 -1.5916e-12)">
     <path d="m1117.8 211.44h0.14l311.94 311.94v260.83c-2.19 1.131-4.06 1.055-5.56-0.442-14.77-14.769-292.47-273.35-292.47-294.24 0-91.863-13.88-275.89-14.05-278.09z" fill="url(#a)"/>
    </g>
    <g transform="translate(3.2597 -1.5348e-12)">
     <path d="m1117.8 211.44h0.14l311.94 311.94h-233.33c-20.88 0-40.91-8.297-55.68-23.066s-23.07-34.8-23.07-55.686v-233.19z" fill="#9700ff"/>
    </g>
    <g transform="translate(0 44.289)" fill="#fff" fill-rule="nonzero">
     <path d="m963.32 983.48h42.107v100.51c0 10.93-0.71 19.32-2.12 25.18-1.41 5.85-3.735 11.03-6.979 15.55-4.303 5.85-9.592 10.28-15.869 13.28-6.278 2.99-13.331 4.49-21.159 4.49-9.733 0-18.409-2.08-26.026-6.24s-14.141-10.33-19.572-18.51l25.814-23.38c0.635 4.58 2.116 8.11 4.443 10.57 2.328 2.47 5.255 3.71 8.781 3.71 4.021 0 6.789-2.23 8.305-6.67 1.517-4.44 2.275-15.55 2.275-33.32v-85.168z"/>
     <path d="m1043.5 1088.3c6.27 7.13 12.46 12.45 18.56 15.98s12.19 5.29 18.25 5.29c5.64 0 10.28-1.52 13.91-4.55 3.64-3.03 5.45-6.88 5.45-11.53 0-5.15-1.57-9.12-4.71-11.9-3.13-2.79-10.24-5.66-21.31-8.63-15.17-4.09-25.89-9.41-32.16-15.97-6.28-6.56-9.42-15.55-9.42-26.98 0-14.81 4.95-26.89 14.86-36.233 9.91-9.345 22.77-14.018 38.57-14.018 8.53 0 16.62 1.147 24.28 3.439 7.65 2.292 14.89 5.766 21.74 10.42l-13.23 30.362c-4.79-4.09-9.71-7.17-14.76-9.26-5.04-2.08-10.03-3.12-14.97-3.12-5.07 0-9.2 1.22-12.38 3.65-3.17 2.44-4.76 5.56-4.76 9.37 0 3.88 1.4 6.98 4.18 9.31 2.79 2.32 8.17 4.55 16.14 6.66l1.9 0.53c17.21 4.66 28.53 9.77 33.96 15.34 3.67 3.81 6.46 8.38 8.36 13.7 1.9 5.33 2.86 11.23 2.86 17.72 0 16.44-5.4 29.64-16.19 39.62s-25.18 14.97-43.16 14.97c-10.8 0-20.62-1.83-29.47-5.5s-17.37-9.42-25.55-17.24l19.05-31.43z"/>
    </g>
    <g transform="matrix(1.2532 0 0 1.2532 685.92 -175.52)" fill="#fff" fill-rule="nonzero">
     <path d="m182.66 581.6h73.903v176.4c0 19.187-1.238 33.918-3.714 44.193s-6.561 19.373-12.255 27.296c-7.551 10.275-16.836 18.042-27.853 23.303-11.017 5.262-23.396 7.892-37.137 7.892-17.083 0-32.31-3.652-45.679-10.955-13.369-7.304-24.82-18.136-34.352-32.495l45.308-41.037c1.114 8.046 3.713 14.236 7.798 18.569 4.085 4.332 9.223 6.499 15.412 6.499 7.056 0 11.915-3.9 14.577-11.699 2.661-7.798 3.992-27.295 3.992-58.491v-149.48z"/>
     <path d="m289.25 837.84l13.741-50.507c9.656 8.418 20.271 14.886 31.845 19.404 11.575 4.519 23.242 6.778 35.002 6.778 8.294 0 14.607-1.331 18.94-3.992 4.333-2.662 6.499-6.53 6.499-11.606 0-8.294-8.727-14.483-26.182-18.568-5.694-1.362-10.274-2.538-13.74-3.528-19.807-5.447-34.198-12.596-43.172-21.447-8.975-8.851-13.463-20.333-13.463-34.445 0-18.197 6.84-32.742 20.519-43.636 13.679-10.893 32.216-16.34 55.613-16.34 12.007 0 24.232 1.393 36.672 4.178 12.441 2.785 25.161 7.087 38.159 12.905l-13.741 45.493c-8.789-5.942-17.702-10.46-26.739-13.555-9.036-3.095-18.073-4.642-27.11-4.642-7.551 0-13.245 1.176-17.083 3.528-3.837 2.352-5.756 5.756-5.756 10.212 0 6.685 8.665 12.318 25.996 16.898 3.961 1.114 6.932 1.919 8.913 2.414 22.901 6.561 38.839 14.267 47.814 23.118s13.462 20.827 13.462 35.93c0 19.187-7.365 34.692-22.096 46.514-14.732 11.822-34.229 17.733-58.491 17.733-16.465 0-31.753-1.888-45.865-5.663-14.112-3.776-27.358-9.501-39.737-17.176z"/>
    </g>
   </g>
   <g transform="matrix(.47195 0 0 .47195 152.4 458.84)">
    <path d="m629.27 911.11v-624.02c0-41.778 33.867-75.646 75.645-75.646h416.3l311.9 311.9v451.04h-803.84v-63.27z" fill="#eb0005"/>
    <g transform="matrix(1 0 0 .87323 -2.0464e-12 160.45)">
     <path d="m1433.1 932.09v241.64c0 38.83-33.86 70.3-75.64 70.3h-652.56c-41.778 0-75.645-31.47-75.645-70.3v-241.64h803.84z" fill="#c20004"/>
    </g>
    <g transform="matrix(2.1188 0 0 2.1188 -322.9 -1007.5)">
     <path d="m712.71 904h-147.29c-0.246-0.011-0.492-0.011-0.737-0.034-0.735-0.068-1.46-0.239-2.148-0.505-1.148-0.445-2.187-1.157-3.017-2.067-0.829-0.91-1.442-2.01-1.779-3.194-0.135-0.474-0.226-0.959-0.271-1.449-0.023-0.245-0.023-0.491-0.034-0.737v-186.12c0.011-0.246 0.011-0.492 0.034-0.737 0.068-0.735 0.239-1.46 0.505-2.148 0.445-1.148 1.157-2.187 2.067-3.017 0.91-0.829 2.01-1.442 3.195-1.779 0.473-0.135 0.958-0.226 1.448-0.271 0.245-0.023 0.491-0.023 0.737-0.034h147.29c0.245 0.011 0.491 0.022 0.736 0.034 0.244 0.034 0.489 0.057 0.731 0.102 0.484 0.09 0.958 0.225 1.417 0.403 0.918 0.356 1.768 0.882 2.496 1.545 0.91 0.83 1.622 1.869 2.066 3.017 0.267 0.688 0.437 1.413 0.506 2.148 0.022 0.245 0.022 0.491 0.034 0.737v186.12c-0.012 0.246-0.012 0.492-0.034 0.737-0.069 0.735-0.239 1.46-0.506 2.148-0.444 1.148-1.156 2.187-2.066 3.017-0.91 0.829-2.011 1.442-3.195 1.779-0.473 0.135-0.958 0.226-1.449 0.271-0.244 0.023-0.491 0.023-0.736 0.034zm-7.987-186.12h-131.32v170.15h131.32v-170.15zm-14.649 137.78v11.148h-106.09v-11.148h106.09zm-106.09-23.329h106.09v11.148h-106.09v-11.148zm0-23.33h106.09v11.149h-106.09v-11.149zm0-23.329h106.09v11.149h-106.09v-11.149zm55.083-46.619h51.009v34.438h-51.009v-34.438zm-55.083 23.329h42.215v11.109h-42.215v-11.109zm0-23.329h42.215v11.149h-42.215v-11.149z" fill="#fff"/>
    </g>
    <g transform="translate(3.2597 -1.5916e-12)">
     <path d="m1117.8 211.44h0.14l311.94 311.94v260.83c-2.19 1.131-4.06 1.055-5.56-0.442-14.77-14.769-292.47-273.35-292.47-294.24 0-91.863-13.88-275.89-14.05-278.09z" fill="url(#a)"/>
    </g>
    <g transform="translate(3.2597 -1.5348e-12)">
     <path d="m1117.8 211.44h0.14l311.94 311.94h-233.33c-20.88 0-40.91-8.297-55.68-23.066s-23.07-34.8-23.07-55.686v-233.19z" fill="#c20004"/>
    </g>
    <g transform="translate(0 44.289)" fill="#fff" fill-rule="nonzero">
     <path d="m876.68 1138.4h-39.567v-154.89h44.116c17.28 0 29.411 0.847 36.394 2.539 6.982 1.693 12.907 4.585 17.773 8.675 5.713 4.726 10.068 10.634 13.066 17.724 2.997 7.08 4.496 14.97 4.496 23.64 0 9.24-1.481 17.37-4.443 24.39-2.963 7.01-7.335 12.78-13.119 17.3-4.373 3.38-9.521 5.81-15.446 7.3-5.924 1.48-15.411 2.22-28.458 2.22h-14.812v51.1zm0-85.17h8.041c10.156 0 17.244-1.39 21.264-4.18 4.021-2.78 6.031-7.53 6.031-14.23 0-6.49-1.975-11.11-5.925-13.86s-10.932-4.12-20.947-4.12h-8.464v36.39z"/>
     <path d="m974.43 1138.4v-154.89h32.269c24.05 0 41.06 1.129 51.04 3.386s18.75 6.03 26.29 11.32c9.81 6.842 17.25 15.602 22.33 26.292 5.07 10.68 7.61 22.87 7.61 36.55s-2.54 25.87-7.61 36.55c-5.08 10.69-12.52 19.45-22.33 26.29-7.47 5.22-16.01 8.94-25.6 11.16s-24.47 3.34-44.64 3.34h-39.359zm41.789-34.71h7.09c16.57 0 28.67-3.4 36.29-10.21 7.61-6.8 11.42-17.61 11.42-32.42s-3.81-25.67-11.42-32.59c-7.62-6.91-19.72-10.36-36.29-10.36h-7.09v85.58z"/>
     <path d="m1140.4 1138.4v-154.89h94.9v33.958h-53.74v26.87h50.67v33.22h-50.67v60.84h-41.16z"/>
    </g>
   </g>
   <g transform="matrix(.47195 0 0 .47195 571.77 458.84)">
    <path d="m629.27 911.11v-624.02c0-41.778 33.867-75.646 75.645-75.646h416.3l311.9 311.9v451.04h-803.84v-63.27z" fill="#5c2b21"/>
    <g transform="matrix(1 0 0 .87323 -2.0464e-12 160.45)">
     <path d="m1433.1 932.09v241.64c0 38.83-33.86 70.3-75.64 70.3h-652.56c-41.778 0-75.645-31.47-75.645-70.3v-241.64h803.84z" fill="#d87825"/>
    </g>
    <g transform="matrix(1.1003 0 0 1.1003 -231.13 -63.928)" fill="#fff" fill-rule="nonzero">
     <path d="m1064.3 741.68h73.72l-27.67-89.686c-0.87-2.724-2.04-7.118-3.53-13.184-1.48-6.066-3.4-13.864-5.75-23.396-1.61 6.684-3.19 13.06-4.74 19.125-1.55 6.066-3.12 11.884-4.73 17.455l-27.3 89.686zm-103.8 101.57l93.768-271.84h92.85l93.95 271.84h-73.71l-13.75-48.65h-105.28l-14.11 48.65h-73.718z"/>
     <path d="m1261 597.22c0-10.027 3.56-18.569 10.68-25.625s15.69-10.584 25.72-10.584c10.39 0 19.09 3.466 26.08 10.398 7 6.933 10.5 15.536 10.5 25.811 0 10.274-3.56 19.001-10.68 26.181s-15.75 10.77-25.9 10.77c-9.91 0-18.45-3.652-25.63-10.955-7.18-7.304-10.77-15.969-10.77-25.996zm3.34 246.03v-187.54h66.29v187.54h-66.29z"/>
    </g>
    <g transform="translate(3.2597 -1.5916e-12)">
     <path d="m1117.8 211.44h0.14l311.94 311.94v260.83c-2.19 1.131-4.06 1.055-5.56-0.442-14.77-14.769-292.47-273.35-292.47-294.24 0-91.863-13.88-275.89-14.05-278.09z" fill="url(#a)"/>
    </g>
    <g transform="translate(3.2597 -1.5348e-12)">
     <path d="m1117.8 211.44h0.14l311.94 311.94h-233.33c-20.88 0-40.91-8.297-55.68-23.066s-23.07-34.8-23.07-55.686v-233.19z" fill="#d87825"/>
    </g>
    <g transform="translate(0 44.289)" fill="#fff" fill-rule="nonzero">
     <path d="m971.52 1080.5h41.998l-15.761-51.1c-0.494-1.55-1.164-4.06-2.01-7.51-0.847-3.46-1.94-7.9-3.28-13.33-0.917 3.8-1.816 7.44-2.698 10.89-0.881 3.46-1.78 6.77-2.697 9.95l-15.552 51.1zm-59.139 57.87l53.426-154.89h52.901l53.53 154.89h-42l-7.83-27.72h-59.986l-8.041 27.72h-42z"/>
     <rect x="1088.1" y="983.48" width="42.635" height="154.88"/>
    </g>
   </g>
   <g transform="matrix(.47195 0 0 .47195 983.02 458.84)">
    <path d="m629.27 911.11v-624.02c0-41.778 33.867-75.646 75.645-75.646h416.3l311.9 311.9v451.04h-803.84v-63.27z" fill="#d825cb"/>
    <g transform="matrix(1.1142 0 0 1.1142 -692.84 -86.155)" fill="#fff" fill-rule="nonzero">
     <rect x="1381.3" y="589.92" width="74.831" height="271.84"/>
     <path d="m1654.6 768.18c0-14.607-3.87-26.12-11.61-34.538-7.74-8.417-18.29-12.626-31.66-12.626s-23.89 4.209-31.57 12.626c-7.67 8.418-11.51 19.931-11.51 34.538 0 14.731 3.81 26.274 11.42 34.63s18.17 12.534 31.66 12.534c13.37 0 23.92-4.209 31.66-12.627 7.74-8.417 11.61-19.93 11.61-34.537zm58.67-194.23v287.81h-60.9v-30.452c-8.42 12.627-17.89 22.066-28.41 28.317s-22.22 9.377-35.1 9.377c-26.36 0-47.35-9.098-62.95-27.296-15.59-18.197-23.39-42.707-23.39-73.531 0-29.834 7.77-53.942 23.3-72.325 15.54-18.383 35.81-27.574 60.81-27.574 15.85 0 28.75 2.847 38.72 8.541 9.97 5.695 18.85 15.227 26.65 28.596-0.75-4.456-1.3-9.501-1.68-15.133-0.37-5.633-0.55-11.729-0.55-18.29v-98.042h63.5z"/>
    </g>
    <g transform="matrix(1 0 0 .87323 -2.0464e-12 160.45)">
     <path d="m1433.1 932.09v241.64c0 38.83-33.86 70.3-75.64 70.3h-652.56c-41.778 0-75.645-31.47-75.645-70.3v-241.64h803.84z" fill="#b111c3"/>
    </g>
    <g transform="translate(3.2597 -1.5916e-12)">
     <path d="m1117.8 211.44h0.14l311.94 311.94v260.83c-2.19 1.131-4.06 1.055-5.56-0.442-14.77-14.769-292.47-273.35-292.47-294.24 0-91.863-13.88-275.89-14.05-278.09z" fill="url(#a)"/>
    </g>
    <g transform="translate(3.2597 -1.5348e-12)">
     <path d="m1117.8 211.44h0.14l311.94 311.94h-233.33c-20.88 0-40.91-8.297-55.68-23.066s-23.07-34.8-23.07-55.686v-233.19z" fill="#b111c3"/>
    </g>
    <g transform="translate(0 44.289)" fill="#fff" fill-rule="nonzero">
     <rect x="926.88" y="983.48" width="42.635" height="154.88"/>
     <path d="m1003.6 1138.4v-154.89h32.27c24.04 0 41.06 1.129 51.04 3.386s18.74 6.03 26.29 11.32c9.8 6.842 17.24 15.602 22.32 26.292 5.08 10.68 7.62 22.87 7.62 36.55s-2.54 25.87-7.62 36.55c-5.08 10.69-12.52 19.45-22.32 26.29-7.48 5.22-16.01 8.94-25.6 11.16s-24.48 3.34-44.65 3.34h-39.35zm41.79-34.71h7.08c16.58 0 28.68-3.4 36.29-10.21 7.62-6.8 11.43-17.61 11.43-32.42s-3.81-25.67-11.43-32.59c-7.61-6.91-19.71-10.36-36.29-10.36h-7.08v85.58z"/>
    </g>
   </g>
   <g transform="matrix(.47195 0 0 .47195 1410.5 459.49)">
    <path d="m629.27 911.11v-624.02c0-41.778 33.867-75.646 75.645-75.646h416.3l311.9 311.9v451.04h-803.84v-63.27z" fill="#5800c6"/>
    <g transform="matrix(.75567 0 0 .75567 -643.58 575.45)" fill="#fff" fill-rule="nonzero">
     <path d="m2080.2 122.57v46.978l-158.57 65.176 158.57 64.619v47.164l-218.74-90.244v-43.264l218.74-90.429z"/>
     <path d="m2203.3 317.54c0-10.522 3.65-19.435 10.95-26.739 7.31-7.304 16.22-10.955 26.74-10.955 10.65 0 19.53 3.62 26.65 10.862s10.68 16.186 10.68 26.832-3.59 19.59-10.77 26.831c-7.18 7.242-16.03 10.863-26.56 10.863-10.39 0-19.28-3.652-26.64-10.956-7.37-7.303-11.05-16.216-11.05-26.738zm71.86-61.648h-63.87v-76.688h19.86c13.99 0 24.64-2.847 31.94-8.542 7.3-5.694 10.96-13.864 10.96-24.51 0-8.542-2.82-15.752-8.45-21.633-5.64-5.88-12.54-8.82-20.71-8.82-8.66 0-15.44 2.321-20.33 6.964-4.89 4.642-7.64 11.419-8.26 20.332h-63.51v-0.743c0-24.139 8.61-43.419 25.81-57.841 17.21-14.421 40.3-21.632 69.27-21.632 26.24 0 47.38 7.613 63.41 22.839 16.03 15.227 24.04 35.219 24.04 59.977 0 20.673-5.54 37.508-16.62 50.506s-25.53 19.745-43.35 20.24l-0.19 39.551z"/>
     <path d="m2408.3 122.57l218.74 90.429v43.264l-218.74 90.244v-47.164l158.57-64.619-158.57-65.176v-46.978z"/>
    </g>
    <g transform="matrix(1 0 0 .87323 -2.0464e-12 160.45)">
     <path d="m1433.1 932.09v241.64c0 38.83-33.86 70.3-75.64 70.3h-652.56c-41.778 0-75.645-31.47-75.645-70.3v-241.64h803.84z" fill="#4a00a7"/>
    </g>
    <g transform="translate(3.2597 -1.5916e-12)">
     <path d="m1117.8 211.44h0.14l311.94 311.94v260.83c-2.19 1.131-4.06 1.055-5.56-0.442-14.77-14.769-292.47-273.35-292.47-294.24 0-91.863-13.88-275.89-14.05-278.09z" fill="url(#a)"/>
    </g>
    <g transform="translate(3.2597 -1.5348e-12)">
     <path d="m1117.8 211.44h0.14l311.94 311.94h-233.33c-20.88 0-40.91-8.297-55.68-23.066s-23.07-34.8-23.07-55.686v-233.19z" fill="#4a00a7"/>
    </g>
    <g transform="translate(0 44.289)" fill="#fff" fill-rule="nonzero">
     <path d="m863.08 1138.4h-39.567v-154.89h44.116c17.28 0 29.411 0.847 36.393 2.539 6.983 1.693 12.907 4.585 17.774 8.675 5.712 4.726 10.068 10.634 13.065 17.724 2.998 7.08 4.496 14.97 4.496 23.64 0 9.24-1.481 17.37-4.443 24.39-2.962 7.01-7.335 12.78-13.118 17.3-4.373 3.38-9.522 5.81-15.446 7.3-5.925 1.48-15.411 2.22-28.459 2.22h-14.811v51.1zm0-85.17h8.04c10.156 0 17.245-1.39 21.265-4.18 4.02-2.78 6.03-7.53 6.03-14.23 0-6.49-1.975-11.11-5.924-13.86-3.95-2.75-10.932-4.12-20.948-4.12h-8.463v36.39z"/>
     <path d="m960.84 1138.4v-154.89h42.213v60.198h56.28v-60.198h42.32v154.89h-42.32v-63.06h-56.28v63.06h-42.213z"/>
     <path d="m1174.1 1138.4h-39.57v-154.89h44.12c17.28 0 29.41 0.847 36.39 2.539 6.98 1.693 12.91 4.585 17.77 8.675 5.72 4.726 10.07 10.634 13.07 17.724 3 7.08 4.5 14.97 4.5 23.64 0 9.24-1.49 17.37-4.45 24.39-2.96 7.01-7.33 12.78-13.12 17.3-4.37 3.38-9.52 5.81-15.44 7.3-5.93 1.48-15.41 2.22-28.46 2.22h-14.81v51.1zm0-85.17h8.04c10.16 0 17.24-1.39 21.26-4.18 4.02-2.78 6.03-7.53 6.03-14.23 0-6.49-1.97-11.11-5.92-13.86s-10.93-4.12-20.95-4.12h-8.46v36.39z"/>
    </g>
   </g>
   <g transform="matrix(.47195 0 0 .47195 1829.9 459.49)">
    <path d="m629.27 911.11v-624.02c0-41.778 33.867-75.646 75.645-75.646h416.3l311.9 311.9v451.04h-803.84v-63.27z" fill="#c60054"/>
    <g transform="matrix(1 0 0 .87323 -2.0464e-12 160.45)">
     <path d="m1433.1 932.09v241.64c0 38.83-33.86 70.3-75.64 70.3h-652.56c-41.778 0-75.645-31.47-75.645-70.3v-241.64h803.84z" fill="#aa034a"/>
    </g>
    <g transform="translate(3.2597 -1.5916e-12)">
     <path d="m1117.8 211.44h0.14l311.94 311.94v260.83c-2.19 1.131-4.06 1.055-5.56-0.442-14.77-14.769-292.47-273.35-292.47-294.24 0-91.863-13.88-275.89-14.05-278.09z" fill="url(#a)"/>
    </g>
    <g transform="translate(3.2597 -1.5348e-12)">
     <path d="m1117.8 211.44h0.14l311.94 311.94h-233.33c-20.88 0-40.91-8.297-55.68-23.066s-23.07-34.8-23.07-55.686v-233.19z" fill="#aa034a"/>
    </g>
    <g transform="translate(0 44.289)" fill="#fff" fill-rule="nonzero">
     <path d="m853.35 1138.4v-118.28h-34.701v-36.608h111.61v36.608h-34.7v118.28h-42.212z"/>
     <rect x="951.95" y="983.48" width="42.635" height="154.88"/>
     <path d="m1028.6 1138.4v-154.89h94.9v33.958h-53.74v26.87h50.67v33.22h-50.67v60.84h-41.16z"/>
     <path d="m1146.5 1138.4v-154.89h94.89v33.958h-53.74v26.87h50.68v33.22h-50.68v60.84h-41.15z"/>
    </g>
    <g transform="matrix(2.1188 0 0 2.1188 -3877.3 -973.59)">
     <path d="m2348.6 803.6h86.76v86.756h-86.76v-86.756zm-100.32 0c23.94 0 43.38 19.437 43.38 43.378s-19.44 43.378-43.38 43.378-43.38-19.437-43.38-43.378 19.44-43.378 43.38-43.378zm119.91-13.805h-103.27l51.64-103.28 51.63 103.28z" fill="#fff"/>
    </g>
   </g>
   <g transform="matrix(.47195 0 0 .47195 152.4 -69.791)">
    <path d="m629.27 911.11v-624.02c0-41.778 33.867-75.646 75.645-75.646h416.3l311.9 311.9v451.04h-803.84v-63.27z" fill="#2243c0"/>
    <g transform="matrix(1 0 0 .87323 -2.0464e-12 160.45)">
     <path d="m1433.1 932.09v241.64c0 38.83-33.86 70.3-75.64 70.3h-652.56c-41.778 0-75.645-31.47-75.645-70.3v-241.64h803.84z" fill="#2322a9"/>
    </g>
    <g transform="translate(3.2597 -1.5916e-12)">
     <path d="m1117.8 211.44h0.14l311.94 311.94v260.83c-2.19 1.131-4.06 1.055-5.56-0.442-14.77-14.769-292.47-273.35-292.47-294.24 0-91.863-13.88-275.89-14.05-278.09z" fill="url(#a)"/>
    </g>
    <g transform="translate(3.2597 -1.5348e-12)">
     <path d="m1117.8 211.44h0.14l311.94 311.94h-233.33c-20.88 0-40.91-8.297-55.68-23.066s-23.07-34.8-23.07-55.686v-233.19z" fill="#2322a9"/>
    </g>
    <g transform="translate(0 44.289)" fill="#fff" fill-rule="nonzero">
     <path d="m872.66 1138.4h-39.567v-154.89h44.116c17.28 0 29.411 0.847 36.394 2.539 6.982 1.693 12.906 4.585 17.773 8.675 5.713 4.726 10.068 10.634 13.066 17.724 2.997 7.08 4.496 14.97 4.496 23.64 0 9.24-1.481 17.37-4.444 24.39-2.962 7.01-7.335 12.78-13.118 17.3-4.373 3.38-9.522 5.81-15.446 7.3-5.924 1.48-15.411 2.22-28.459 2.22h-14.811v51.1zm0-85.17h8.041c10.156 0 17.244-1.39 21.264-4.18 4.02-2.78 6.03-7.53 6.03-14.23 0-6.49-1.974-11.11-5.924-13.86s-10.932-4.12-20.947-4.12h-8.464v36.39z"/>
     <path d="m977.29 1088.3c6.277 7.13 12.466 12.45 18.567 15.98 6.105 3.53 12.185 5.29 18.245 5.29 5.65 0 10.28-1.52 13.92-4.55 3.63-3.03 5.44-6.88 5.44-11.53 0-5.15-1.57-9.12-4.7-11.9-3.14-2.79-10.25-5.66-21.32-8.63-15.165-4.09-25.885-9.41-32.162-15.97-6.278-6.56-9.416-15.55-9.416-26.98 0-14.81 4.955-26.89 14.864-36.233 9.909-9.345 22.764-14.018 38.564-14.018 8.53 0 16.62 1.147 24.28 3.439 7.65 2.292 14.9 5.766 21.74 10.42l-13.23 30.362c-4.79-4.09-9.71-7.17-14.75-9.26-5.05-2.08-10.04-3.12-14.97-3.12-5.08 0-9.21 1.22-12.38 3.65-3.18 2.44-4.76 5.56-4.76 9.37 0 3.88 1.39 6.98 4.18 9.31 2.78 2.32 8.16 4.55 16.13 6.66l1.9 0.53c17.21 4.66 28.53 9.77 33.96 15.34 3.67 3.81 6.46 8.38 8.36 13.7 1.91 5.33 2.86 11.23 2.86 17.72 0 16.44-5.4 29.64-16.19 39.62s-25.18 14.97-43.16 14.97c-10.79 0-20.615-1.83-29.466-5.5s-17.368-9.42-25.549-17.24l19.043-31.43z"/>
     <path d="m1096.3 1138.4v-154.89h32.26c24.05 0 41.07 1.129 51.05 3.386s18.74 6.03 26.29 11.32c9.8 6.842 17.24 15.602 22.32 26.292 5.08 10.68 7.62 22.87 7.62 36.55s-2.54 25.87-7.62 36.55c-5.08 10.69-12.52 19.45-22.32 26.29-7.48 5.22-16.01 8.94-25.6 11.16-9.6 2.22-24.48 3.34-44.65 3.34h-39.35zm41.79-34.71h7.08c16.58 0 28.67-3.4 36.29-10.21 7.62-6.8 11.43-17.61 11.43-32.42s-3.81-25.67-11.43-32.59c-7.62-6.91-19.71-10.36-36.29-10.36h-7.08v85.58z"/>
    </g>
    <g transform="matrix(1.1104 0 0 1.1104 162.22 510.74)" fill="#fff" fill-rule="nonzero">
     <path d="m659.46 328.96h-69.447v-271.84h77.431c30.329 0 51.621 1.485 63.876 4.456s22.654 8.047 31.195 15.226c10.027 8.294 17.671 18.662 22.932 31.103s7.892 26.274 7.892 41.501c0 16.216-2.6 30.483-7.799 42.8s-12.874 22.437-23.025 30.36c-7.675 5.942-16.712 10.212-27.11 12.812s-27.048 3.899-49.949 3.899h-25.996v89.687zm0-149.48h14.112c17.826 0 30.266-2.445 37.323-7.335 7.056-4.89 10.584-13.215 10.584-24.975 0-11.388-3.467-19.497-10.399-24.325-6.932-4.827-19.187-7.241-36.766-7.241h-14.854v63.876z"/>
     <path d="m808.94 313.36l13.74-50.507c9.656 8.418 20.271 14.886 31.845 19.405 11.575 4.518 23.242 6.777 35.002 6.777 8.294 0 14.607-1.331 18.94-3.992 4.333-2.662 6.499-6.53 6.499-11.605 0-8.294-8.727-14.484-26.182-18.569-5.694-1.362-10.274-2.538-13.74-3.528-19.807-5.447-34.197-12.596-43.172-21.447s-13.462-20.332-13.462-34.444c0-18.198 6.839-32.743 20.518-43.637 13.679-10.893 32.216-16.34 55.613-16.34 12.007 0 24.232 1.393 36.673 4.178s25.16 7.087 38.158 12.905l-13.741 45.493c-8.789-5.942-17.702-10.46-26.738-13.555-9.037-3.095-18.074-4.642-27.111-4.642-7.551 0-13.245 1.176-17.083 3.528-3.837 2.352-5.756 5.756-5.756 10.213 0 6.684 8.665 12.317 25.996 16.897 3.961 1.114 6.932 1.919 8.913 2.414 22.901 6.561 38.839 14.267 47.814 23.118s13.462 20.828 13.462 35.93c0 19.188-7.365 34.692-22.096 46.514s-34.228 17.733-58.491 17.733c-16.464 0-31.753-1.887-45.865-5.663s-27.357-9.501-39.736-17.176z"/>
    </g>
   </g>
   <g transform="matrix(.47195 0 0 .47195 571.77 -69.791)">
    <path d="m629.27 911.11v-624.02c0-41.778 33.867-75.646 75.645-75.646h416.3l311.9 311.9v451.04h-803.84v-63.27z" fill="#40c022"/>
    <g transform="matrix(1 0 0 .87323 -2.0464e-12 160.45)">
     <path d="m1433.1 932.09v241.64c0 38.83-33.86 70.3-75.64 70.3h-652.56c-41.778 0-75.645-31.47-75.645-70.3v-241.64h803.84z" fill="#1da525"/>
    </g>
    <g transform="translate(3.2597 -1.5916e-12)">
     <path d="m1117.8 211.44h0.14l311.94 311.94v260.83c-2.19 1.131-4.06 1.055-5.56-0.442-14.77-14.769-292.47-273.35-292.47-294.24 0-91.863-13.88-275.89-14.05-278.09z" fill="url(#a)"/>
    </g>
    <g transform="translate(3.2597 -1.5348e-12)">
     <path d="m1117.8 211.44h0.14l311.94 311.94h-233.33c-20.88 0-40.91-8.297-55.68-23.066s-23.07-34.8-23.07-55.686v-233.19z" fill="#1da525"/>
    </g>
    <g transform="translate(0 44.289)" fill="#fff" fill-rule="nonzero">
     <path d="m988.77 1138.4h-39.461l-9.098-66.97c-0.635-4.73-1.217-9.98-1.746-15.77-0.529-5.78-1.005-12.09-1.428-18.93-0.987 6.56-2.927 14.74-5.819 24.54-0.634 2.05-1.093 3.56-1.375 4.55l-21.053 72.58h-28.141l-21.053-72.58c-0.283-0.99-0.706-2.5-1.27-4.55-2.962-9.8-4.902-17.95-5.819-24.44-0.423 5.86-0.917 11.66-1.481 17.41-0.564 5.74-1.234 11.47-2.01 17.19l-9.098 66.97h-39.25l23.91-154.89h41.788l23.381 79.878c0.141 0.56 0.423 1.48 0.846 2.75 2.187 7.12 3.562 13.22 4.126 18.3 0.282-2.75 0.811-5.8 1.587-9.15s1.834-7.39 3.174-12.12l23.592-79.658h41.895l23.803 154.89z"/>
     <path d="m1051.1 1138.4h-39.57v-154.89h44.12c17.28 0 29.41 0.847 36.39 2.539 6.98 1.693 12.91 4.585 17.78 8.675 5.71 4.726 10.06 10.634 13.06 17.724 3 7.08 4.5 14.97 4.5 23.64 0 9.24-1.48 17.37-4.45 24.39-2.96 7.01-7.33 12.78-13.11 17.3-4.38 3.38-9.53 5.81-15.45 7.3-5.93 1.48-15.41 2.22-28.46 2.22h-14.81v51.1zm0-85.17h8.04c10.16 0 17.24-1.39 21.26-4.18 4.02-2.78 6.03-7.53 6.03-14.23 0-6.49-1.97-11.11-5.92-13.86s-10.93-4.12-20.95-4.12h-8.46v36.39z"/>
     <path d="m1208.6 1073.2v-45.07c0-4.16 0.08-7.64 0.26-10.42 0.18-2.79 0.44-5.17 0.79-7.14-1.33 3.03-2.83 6.06-4.49 9.09-1.66 3.04-3.69 6.42-6.08 10.16l-28.46 43.38h37.98zm0 65.17v-34.71h-70.46v-30.46l57.66-88.871h48.13v88.871h17.14v30.46h-17.14v34.71h-35.33z"/>
    </g>
    <g transform="matrix(1.214e-16 1.9826 -1.9826 1.214e-16 1798.3 -2234.8)">
     <path d="m1495 319.53l82.01 134.83h-164.03l82.02-134.83z" fill="#fff"/>
    </g>
   </g>
   <g transform="matrix(.47195 0 0 .47195 991.15 -69.791)">
    <path d="m629.27 911.11v-624.02c0-41.778 33.867-75.646 75.645-75.646h416.3l311.9 311.9v451.04h-803.84v-63.27z" fill="#00c783"/>
    <g transform="matrix(1 0 0 .87323 -2.0464e-12 160.45)">
     <path d="m1433.1 932.09v241.64c0 38.83-33.86 70.3-75.64 70.3h-652.56c-41.778 0-75.645-31.47-75.645-70.3v-241.64h803.84z" fill="#00af73"/>
    </g>
    <g transform="translate(-799.57 117.45)">
     <path d="m2011.2 779.52c-120.29 0.37-240.57 0-360.86 0-0.85-3e-3 -1.7-0.014-2.56-0.04-1.88-0.059-3.76-0.181-5.63-0.367-5.92-0.587-11.77-1.811-17.42-3.644-7.41-2.401-14.47-5.845-20.92-10.204-6.39-4.312-12.16-9.514-17.12-15.411-2.95-3.517-5.61-7.279-7.95-11.235-2.75-4.66-5.04-9.589-6.83-14.694-2.08-5.924-3.49-12.084-4.19-18.324-0.21-1.87-0.35-3.748-0.43-5.628-0.05-1.031-0.07-2.062-0.08-3.093-0.17-56.608 0-113.22 0-169.82 0-1.023 0.02-2.047 0.06-3.069 0.07-1.882 0.2-3.762 0.4-5.635 0.58-5.573 1.74-11.085 3.43-16.426 1.49-4.674 3.38-9.215 5.67-13.554 2.76-5.264 6.1-10.229 9.92-14.782 4.52-5.376 9.72-10.176 15.44-14.249 6.34-4.517 13.32-8.135 20.67-10.717 5.77-2.025 11.75-3.411 17.82-4.127 2.04-0.241 4.08-0.406 6.14-0.495 1.03-0.044 2.06-0.067 3.09-0.076 120.62-0.374 241.25-0.374 361.87 0 0.86 8e-3 1.72 0.024 2.58 0.056 1.88 0.07 3.76 0.203 5.64 0.401 5.91 0.624 11.75 1.883 17.39 3.749 7.23 2.393 14.13 5.783 20.44 10.047 5.81 3.929 11.12 8.596 15.77 13.856 3.15 3.574 6 7.419 8.5 11.48 3.1 5.042 5.66 10.418 7.62 16.003 2.03 5.764 3.42 11.751 4.13 17.818 0.24 2.037 0.41 4.083 0.5 6.133 0.04 1.031 0.06 2.063 0.07 3.095 0.17 56.608 0 113.22 0 169.82 0 1.022-0.01 2.045-0.05 3.067-0.07 1.883-0.21 3.765-0.4 5.639-0.61 5.74-1.82 11.415-3.6 16.906-2.4 7.407-5.84 14.47-10.2 20.921-3.83 5.672-8.37 10.865-13.47 15.428-4.31 3.859-9.03 7.264-14.05 10.145-4.4 2.524-9.03 4.644-13.82 6.326-5.31 1.866-10.82 3.19-16.39 3.946-1.52 0.476-2.73 0.477-5.05 0.754h-6.13zm14.05-35.172c0.56-0.163 1.11-0.336 1.66-0.518 4.74-1.567 9.24-3.847 13.3-6.74 3.86-2.747 7.32-6.044 10.25-9.762 3.47-4.4 6.19-9.385 8.02-14.685 1.23-3.57 2.05-7.279 2.45-11.034 0.17-1.64 0.26-3.286 0.27-4.935 0.17-56.635 0.17-113.27 0-169.9-0.01-1.649-0.1-3.296-0.27-4.935-0.4-3.755-1.22-7.465-2.45-11.034-1.83-5.3-4.55-10.285-8.02-14.686-2.93-3.717-6.39-7.015-10.25-9.761-4.06-2.893-8.56-5.173-13.3-6.74-3.39-1.122-6.9-1.879-10.45-2.254-1.64-0.173-3.29-0.26-4.94-0.275-120.38-0.373-240.75-1e-3 -361.13-1e-3 -0.63 2e-3 -1.26 0.011-1.89 0.034-1.13 0.043-2.26 0.123-3.38 0.242-3.76 0.396-7.47 1.219-11.04 2.449-5.78 1.993-11.19 5.054-15.88 8.991-3.38 2.847-6.39 6.145-8.92 9.782-2.72 3.93-4.88 8.252-6.38 12.793-1.12 3.393-1.88 6.904-2.26 10.457-0.17 1.641-0.26 3.288-0.27 4.938-0.17 56.635-0.17 113.27 0 169.9 0 0.62 0.02 1.24 0.04 1.86 0.06 1.233 0.16 2.465 0.3 3.691 0.43 3.645 1.26 7.243 2.48 10.707 1.83 5.192 4.51 10.076 7.92 14.396 2.93 3.718 6.4 7.015 10.25 9.762 4.07 2.894 8.56 5.173 13.3 6.74 3.29 1.089 6.7 1.835 10.15 2.221 1.74 0.194 3.49 0.292 5.24 0.308 4 0.012 8 0.024 11.99 0.036l89.43-120.1c0.23-0.287 0.45-0.582 0.69-0.862 0.48-0.559 0.99-1.086 1.54-1.577 2.19-1.966 4.9-3.327 7.79-3.91 0.72-0.146 1.45-0.244 2.18-0.292 0.37-0.025 0.74-0.025 1.1-0.037 0.37 0.012 0.74 0.024 1.1 0.037 0.37 0.036 0.74 0.061 1.1 0.109 0.73 0.098 1.45 0.244 2.16 0.437 2.48 0.676 4.8 1.937 6.72 3.656 0.54 0.491 1.06 1.018 1.53 1.577 0.24 0.28 0.46 0.575 0.69 0.862l28.62 38.432 70.31-112.33c0.77-0.97 1.43-2.033 2.31-2.911 0.87-0.878 1.86-1.662 2.9-2.322 2.12-1.33 4.5-2.166 6.98-2.445 1.23-0.14 2.48 0 3.72 0 1.21 0.276 2.42 0.552 3.63 0.829 1.11 0.538 2.3 0.955 3.34 1.616 2.83 1.78 3.18 2.668 5.22 5.233l120.15 191.95zm-321.84 2.012h122.72l-61.36-82.406c-20.45 27.469-40.9 54.937-61.36 82.406zm124.53-53.094l39.54 53.094h119.91l-96.34-153.92-63.11 100.82zm-136.26-186.22c24.13 0 43.72 19.589 43.72 43.718 0 24.128-19.59 43.717-43.72 43.717s-43.72-19.589-43.72-43.717c0-24.129 19.59-43.718 43.72-43.718zm0 16.895c14.81 0 26.83 12.019 26.83 26.823s-12.02 26.823-26.83 26.823c-14.8 0-26.82-12.019-26.82-26.823s12.02-26.823 26.82-26.823z" fill="#fff"/>
    </g>
    <g transform="translate(3.2597 -1.5916e-12)">
     <path d="m1117.8 211.44h0.14l311.94 311.94v260.83c-2.19 1.131-4.06 1.055-5.56-0.442-14.77-14.769-292.47-273.35-292.47-294.24 0-91.863-13.88-275.89-14.05-278.09z" fill="url(#a)"/>
    </g>
    <g transform="translate(3.2597 -1.5348e-12)">
     <path d="m1117.8 211.44h0.14l311.94 311.94h-233.33c-20.88 0-40.91-8.297-55.68-23.066s-23.07-34.8-23.07-55.686v-233.19z" fill="#00af73"/>
    </g>
    <g transform="translate(0 44.289)" fill="#fff" fill-rule="nonzero">
     <path d="m834.99 1138.4h-39.567v-154.89h44.117c17.279 0 29.41 0.847 36.393 2.539 6.982 1.693 12.907 4.585 17.773 8.675 5.713 4.726 10.068 10.634 13.066 17.724 2.997 7.08 4.496 14.97 4.496 23.64 0 9.24-1.481 17.37-4.443 24.39-2.963 7.01-7.335 12.78-13.119 17.3-4.373 3.38-9.521 5.81-15.446 7.3-5.924 1.48-15.41 2.22-28.458 2.22h-14.812v51.1zm0-85.17h8.041c10.156 0 17.244-1.39 21.264-4.18 4.021-2.78 6.031-7.53 6.031-14.23 0-6.49-1.975-11.11-5.925-13.86-3.949-2.75-10.932-4.12-20.947-4.12h-8.464v36.39z"/>
     <path d="m932.75 1138.4v-154.89h40.731l58.501 79.658c1.13 1.63 2.98 4.89 5.56 9.79 2.57 4.9 5.41 10.74 8.51 17.51-0.84-6.42-1.46-12.13-1.85-17.14-0.38-5.01-0.58-9.45-0.58-13.33v-76.488h40.52v154.89h-40.52l-58.504-79.99c-1.199-1.62-3.085-4.88-5.66-9.78-2.574-4.9-5.377-10.67-8.41-17.3 0.846 6.49 1.463 12.24 1.851 17.25 0.388 5 0.582 9.45 0.582 13.33v76.49h-40.731z"/>
     <path d="m1191 1081.3v-32.48h82.94c0.08 1.06 0.13 2.23 0.16 3.49 0.04 1.27 0.06 3.14 0.06 5.61 0 26.66-7.04 47.34-21.11 62.05-14.07 14.7-33.87 22.06-59.4 22.06-12.56 0-23.72-1.89-33.49-5.66-9.77-3.78-18.49-9.54-26.18-17.3-7.34-7.41-13.03-16.17-17.09-26.29-4.05-10.12-6.08-20.72-6.08-31.79 0-11.57 1.98-22.2 5.93-31.9 3.94-9.69 9.83-18.42 17.66-26.18 7.76-7.548 16.67-13.261 26.72-17.14s20.89-5.819 32.53-5.819c15.16 0 28.58 2.998 40.25 8.993s21.5 14.916 29.47 26.766l-36.61 17.56c-4.37-5.99-9.29-10.45-14.76-13.38-5.46-2.93-11.58-4.39-18.35-4.39-12.63 0-22.57 4.21-29.84 12.64-7.26 8.43-10.89 19.94-10.89 34.54 0 14.74 3.63 26.35 10.89 34.81 7.27 8.46 17.21 12.69 29.84 12.69 10.72 0 19.66-2.62 26.82-7.88 7.16-5.25 11.33-12.25 12.53-21h-42z"/>
    </g>
   </g>
   <g transform="matrix(.47195 0 0 .47195 1410.5 -69.791)">
    <path d="m629.27 911.11v-624.02c0-41.778 33.867-75.646 75.645-75.646h416.3l311.9 311.9v451.04h-803.84v-63.27z" fill="#c12906"/>
    <g transform="matrix(1 0 0 .87323 -2.0464e-12 160.45)">
     <path d="m1433.1 932.09v241.64c0 38.83-33.86 70.3-75.64 70.3h-652.56c-41.778 0-75.645-31.47-75.645-70.3v-241.64h803.84z" fill="#9b0d0a"/>
    </g>
    <g transform="translate(3.2597 -1.5916e-12)">
     <path d="m1117.8 211.44h0.14l311.94 311.94v260.83c-2.19 1.131-4.06 1.055-5.56-0.442-14.77-14.769-292.47-273.35-292.47-294.24 0-91.863-13.88-275.89-14.05-278.09z" fill="url(#a)"/>
    </g>
    <g transform="translate(3.2597 -1.5348e-12)">
     <path d="m1117.8 211.44h0.14l311.94 311.94h-233.33c-20.88 0-40.91-8.297-55.68-23.066s-23.07-34.8-23.07-55.686v-233.19z" fill="#9b0d0a"/>
    </g>
    <g transform="translate(0 44.289)" fill="#fff" fill-rule="nonzero">
     <path d="m743.06 1138.4v-154.89h42.212v60.198h56.283v-60.198h42.317v154.89h-42.317v-63.06h-56.283v63.06h-42.212z"/>
     <path d="m939.1 1138.4v-118.28h-34.701v-36.608h111.62v36.608h-34.702v118.28h-42.212z"/>
     <path d="m1214.3 1138.4h-39.46l-9.1-66.97c-0.64-4.73-1.22-9.98-1.75-15.77-0.53-5.78-1-12.09-1.43-18.93-0.98 6.56-2.92 14.74-5.82 24.54-0.63 2.05-1.09 3.56-1.37 4.55l-21.05 72.58h-28.15l-21.05-72.58c-0.28-0.99-0.7-2.5-1.27-4.55-2.96-9.8-4.9-17.95-5.82-24.44-0.42 5.86-0.91 11.66-1.48 17.41-0.56 5.74-1.23 11.47-2.01 17.19l-9.1 66.97h-39.25l23.91-154.89h41.79l23.38 79.878c0.14 0.56 0.43 1.48 0.85 2.75 2.19 7.12 3.56 13.22 4.13 18.3 0.28-2.75 0.81-5.8 1.58-9.15 0.78-3.35 1.84-7.39 3.18-12.12l23.59-79.658h41.89l23.81 154.89z"/>
     <path d="m1237 1138.4v-154.89h42.22v118.7h52.47v36.19h-94.69z"/>
    </g>
    <g transform="matrix(.75567 0 0 .75567 -643.58 557.84)" fill="#fff" fill-rule="nonzero">
     <path d="m2080.2 122.57v46.978l-158.57 65.176 158.57 64.619v47.164l-218.74-90.244v-43.264l218.74-90.429z"/>
     <path d="m2129.2 383.27l133.14-313.25h41.04l-132.77 313.25h-41.41z"/>
     <path d="m2352.4 122.57l218.73 90.429v43.264l-218.73 90.244v-47.164l158.57-64.619-158.57-65.176v-46.978z"/>
    </g>
   </g>
   <g transform="matrix(.47195 0 0 .47195 1819.9 -69.791)">
    <path d="m629.27 911.11v-624.02c0-41.778 33.867-75.646 75.645-75.646h416.3l311.9 311.9v451.04h-803.84v-63.27z" fill="#0692c1"/>
    <g transform="matrix(1 0 0 .87323 -2.0464e-12 160.45)">
     <path d="m1433.1 932.09v241.64c0 38.83-33.86 70.3-75.64 70.3h-652.56c-41.778 0-75.645-31.47-75.645-70.3v-241.64h803.84z" fill="#0a729b"/>
    </g>
    <g transform="translate(3.2597 -1.5916e-12)">
     <path d="m1117.8 211.44h0.14l311.94 311.94v260.83c-2.19 1.131-4.06 1.055-5.56-0.442-14.77-14.769-292.47-273.35-292.47-294.24 0-91.863-13.88-275.89-14.05-278.09z" fill="url(#a)"/>
    </g>
    <g transform="translate(3.2597 -1.5348e-12)">
     <path d="m1117.8 211.44h0.14l311.94 311.94h-233.33c-20.88 0-40.91-8.297-55.68-23.066s-23.07-34.8-23.07-55.686v-233.19z" fill="#0a729b"/>
    </g>
    <g transform="translate(0 44.289)" fill="#fff" fill-rule="nonzero">
     <path d="m966.02 989.51v46.128c-5.784-6.42-11.55-11.13-17.298-14.13-5.748-2.99-11.902-4.49-18.461-4.49-12.131 0-21.952 4.14-29.464 12.43-7.511 8.29-11.267 19.1-11.267 32.43 0 12.41 3.827 22.71 11.479 30.89s17.403 12.27 29.252 12.27c6.559 0 12.713-1.5 18.461-4.5 5.748-2.99 11.514-7.74 17.298-14.23v46.24c-6.701 3.24-13.366 5.67-19.996 7.3-6.629 1.62-13.33 2.43-20.1 2.43-8.464 0-16.275-1.01-23.434-3.02s-13.735-5.06-19.73-9.15c-11.567-7.75-20.384-17.52-26.449-29.3-6.066-11.78-9.098-25.04-9.098-39.78 0-11.85 1.922-22.62 5.765-32.32 3.844-9.7 9.645-18.5 17.404-26.4 7.335-7.543 15.604-13.185 24.808-16.923 9.204-3.739 19.449-5.608 30.734-5.608 6.77 0 13.471 0.812 20.1 2.434 6.63 1.622 13.295 4.055 19.996 7.299z"/>
     <path d="m996.7 1088.3c6.279 7.13 12.469 12.45 18.569 15.98s12.18 5.29 18.25 5.29c5.64 0 10.28-1.52 13.91-4.55s5.45-6.88 5.45-11.53c0-5.15-1.57-9.12-4.71-11.9-3.14-2.79-10.25-5.66-21.32-8.63-15.16-4.09-25.88-9.41-32.159-15.97-6.277-6.56-9.416-15.55-9.416-26.98 0-14.81 4.955-26.89 14.865-36.233 9.91-9.345 22.76-14.018 38.56-14.018 8.54 0 16.63 1.147 24.28 3.439s14.9 5.766 21.74 10.42l-13.22 30.362c-4.8-4.09-9.72-7.17-14.76-9.26-5.04-2.08-10.03-3.12-14.97-3.12-5.08 0-9.2 1.22-12.38 3.65-3.17 2.44-4.76 5.56-4.76 9.37 0 3.88 1.39 6.98 4.18 9.31 2.79 2.32 8.16 4.55 16.13 6.66l1.91 0.53c17.21 4.66 28.53 9.77 33.96 15.34 3.66 3.81 6.45 8.38 8.35 13.7 1.91 5.33 2.86 11.23 2.86 17.72 0 16.44-5.39 29.64-16.18 39.62-10.8 9.98-25.18 14.97-43.17 14.97-10.79 0-20.61-1.83-29.46-5.5-8.854-3.67-17.371-9.42-25.552-17.24l19.043-31.43z"/>
     <path d="m1122.6 1088.3c6.27 7.13 12.46 12.45 18.56 15.98s12.19 5.29 18.25 5.29c5.65 0 10.28-1.52 13.91-4.55 3.64-3.03 5.45-6.88 5.45-11.53 0-5.15-1.57-9.12-4.7-11.9-3.14-2.79-10.25-5.66-21.32-8.63-15.17-4.09-25.89-9.41-32.16-15.97-6.28-6.56-9.42-15.55-9.42-26.98 0-14.81 4.96-26.89 14.86-36.233 9.91-9.345 22.77-14.018 38.57-14.018 8.53 0 16.62 1.147 24.28 3.439 7.65 2.292 14.9 5.766 21.74 10.42l-13.23 30.362c-4.79-4.09-9.71-7.17-14.76-9.26-5.04-2.08-10.03-3.12-14.97-3.12-5.07 0-9.2 1.22-12.37 3.65-3.18 2.44-4.76 5.56-4.76 9.37 0 3.88 1.39 6.98 4.17 9.31 2.79 2.32 8.17 4.55 16.14 6.66l1.9 0.53c17.21 4.66 28.53 9.77 33.96 15.34 3.67 3.81 6.46 8.38 8.36 13.7 1.9 5.33 2.86 11.23 2.86 17.72 0 16.44-5.4 29.64-16.19 39.62s-25.18 14.97-43.16 14.97c-10.79 0-20.62-1.83-29.47-5.5s-17.36-9.42-25.55-17.24l19.05-31.43z"/>
    </g>
    <g transform="matrix(.9546 0 0 .9546 -1330 511.72)" fill="#fff" fill-rule="nonzero">
     <path d="m2383.9 52.256v44.936c-0.86 0-2.16-0.062-3.9-0.186-1.73-0.124-2.97-0.186-3.71-0.186-12.13 0-20.3 2.194-24.51 6.581-4.21 4.386-6.31 13.439-6.31 27.156v44.489c0 17.344-2.86 29.733-8.58 37.166-5.71 7.434-15.96 12.699-30.74 15.795 14.9 2.973 25.18 8.083 30.84 15.331 5.65 7.248 8.48 19.605 8.48 37.073v44.861c0 13.594 2.07 22.553 6.22 26.878 4.14 4.325 12.22 6.487 24.23 6.487 0.87 0 2.19-0.062 3.99-0.185 1.8-0.124 3.13-0.186 3.99-0.186v44.936c-1.86 0-4.46 0.062-7.81 0.185-3.35 0.124-5.83 0.186-7.45 0.186-13.39 0-24.53-0.742-33.39-2.227-8.87-1.484-16.29-3.774-22.24-6.869-7.32-3.959-12.43-9.434-15.35-16.425-2.91-6.992-4.37-18.901-4.37-35.729v-47.451c0-16.437-3.07-28.024-9.19-34.76-6.13-6.736-16.56-10.104-31.29-10.104-0.5 0-1.55 0.063-3.16 0.187-1.61 0.125-2.78 0.187-3.53 0.187v-44.935c0.75 0 1.86 0.062 3.35 0.187 1.48 0.124 2.6 0.187 3.34 0.187 14.61 0 25-3.43 31.19-10.288 6.19-6.859 9.29-18.507 9.29-34.944v-47.086c0-16.828 1.49-28.799 4.46-35.913 2.98-7.114 8.07-12.651 15.26-16.61 5.95-3.095 13.43-5.384 22.42-6.869 8.99-1.484 20.19-2.227 33.59-2.227 1.48 0 3.87 0.062 7.16 0.186s5.86 0.186 7.72 0.186z"/>
     <path d="m2453.4 178.15c0-10.522 3.62-19.343 10.86-26.461 7.24-7.117 16.13-10.676 26.65-10.676 10.64 0 19.52 3.528 26.64 10.584s10.68 15.907 10.68 26.553-3.59 19.59-10.77 26.831c-7.18 7.242-16.03 10.863-26.55 10.863-10.4 0-19.25-3.652-26.56-10.956-7.3-7.303-10.95-16.216-10.95-26.738zm4.08 86.715h69.26l-57.37 116.42h-51.44l39.55-116.42z"/>
     <path d="m2563.1 52.256c1.86 0 4.43-0.062 7.71-0.186s5.66-0.186 7.14-0.186c13.37 0 24.52 0.743 33.43 2.227 8.91 1.485 16.4 3.774 22.47 6.869 7.18 3.959 12.28 9.496 15.31 16.61 3.04 7.114 4.55 19.085 4.55 35.913v47.086c0 16.561 3.05 28.24 9.14 35.036 6.09 6.797 16.53 10.196 31.32 10.196 0.74 0 1.86-0.063 3.35-0.187 1.49-0.125 2.61-0.187 3.36-0.187v44.935c-0.75 0-1.87-0.062-3.36-0.187-1.49-0.124-2.61-0.187-3.35-0.187-14.79 0-25.23 3.399-31.32 10.197s-9.14 18.353-9.14 34.667v47.451c0 16.952-1.51 28.985-4.55 36.1-3.03 7.115-8.13 12.59-15.31 16.426-5.57 2.971-12.6 5.168-21.08 6.59-8.48 1.423-19.47 2.134-32.96 2.134-1.73 0-4.46-0.062-8.17-0.186-3.71-0.123-6.56-0.185-8.54-0.185v-44.936c1.11 0 2.54 0.062 4.27 0.186 1.73 0.123 2.97 0.185 3.71 0.185 12.01 0 20.09-2.131 24.24-6.394 4.14-4.263 6.22-13.254 6.22-26.971v-44.861c0-17.344 2.84-29.671 8.54-36.98 5.69-7.31 15.91-12.451 30.64-15.424-14.86-3.096-25.1-8.299-30.73-15.609-5.64-7.309-8.45-19.76-8.45-37.352v-44.489c0-13.717-2.08-22.77-6.22-27.156-4.15-4.387-11.98-6.581-23.49-6.581-0.87 0-2.26 0.062-4.18 0.186s-3.44 0.186-4.55 0.186v-44.936z"/>
    </g>
   </g>
  </g>
 </g>
 <defs>
  <linearGradient id="a" x2="1" gradientTransform="matrix(278.39 273.89 -273.89 278.39 1214.6 446.11)" gradientUnits="userSpaceOnUse">
   <stop stop-color="#212121" stop-opacity=".61569" offset="0"/>
   <stop stop-color="#4d4d4d" stop-opacity="0" offset="1"/>
  </linearGradient>
 </defs>
</svg>
